PathFileType	4	(X/Y/Z)	C:/Users/beibeiliu/ov580/test_trc/User3\sequence.16_training_dense_left.trc
DataRate	CameraRate	NumFrames	NumMarkers	Units	OrigDataRate	OrigDataStartFrame	OrigNumFrames
120	120	9	19	mm	120	67	266
Frame#	Time	ThumbCMC			ThumbMCP			ThumbIP			ThumbTip			IndexMCP			IndexPIP			IndexTip			MiddleMCP			MiddlePIP			MiddleTip			RingMCP			RingPIP			RingTip			PinkyMCP			PinkyPIP			PinkyTip			BackHand1			BackHand2			BackHand3	
		X0	Y0	Z0	X1	Y1	Z1	X2	Y2	Z2	X3	Y3	Z3	X4	Y4	Z4	X5	Y5	Z5	X6	Y6	Z6	X7	Y7	Z7	X8	Y8	Z8	X9	Y9	Z9	X10	Y10	Z10	X11	Y11	Z11	X12	Y12	Z12	X13	Y13	Z13	X14	Y14	Z14	X15	Y15	Z15	X16	Y16	Z16	X17	Y17	Z17	X18	Y18	Z18	
66	0.55	-207.162	13.4306	3.54023	-191.88	19.2407	-25.0395	-180.257	15.5302	-53.3966	-168.543	3.06488	-74.2065	-219.008	-17.216	-63.594	-196.106	-18.3385	-89.7338	-166.383	-5.60169	-89.967	-212.491	-38.4044	-69.9405	-189	-32.1524	-89.9121	-155.906	-17.7855	-67.6806	-201.164	-50.1357	-58.9449	-173.811	-47.9017	-73.5754	-152.488	-30.9666	-58.5619	-194.108	-61.834	-40.1626	-173.131	-55.7553	-58.5892	-147.439	-43.7132	-51.1815	-225.196	-47.1649	-2.70104	-223.529	-46.4673	23.296	-235.038	-16.1009	3.77197	
67	0.558333	-201.561	16.5974	6.46525	-186.295	19.8847	-21.8154	-177.494	18.9681	-53.0616	-171.402	0.0304123	-72.5607	-220.353	-10.7652	-60.9389	-201.536	-11.3601	-87.797	-170.848	-4.84396	-91.1391	-218.876	-29.6001	-67.0344	-192.809	-28.5335	-88.5895	-161.277	-21.9161	-70.0576	-211.242	-44.2395	-58.9164	-182.742	-43.5267	-75.2773	-158.898	-32.7063	-58.467	-203.062	-58.0354	-46.6945	-180.502	-55.278	-62.3294	-155.493	-43.4067	-52.3272	-231.088	-41.7771	-2.57308	-226.833	-40.127	22.9703	-232.543	-8.39059	6.08077	
68	0.566667	-194.657	16.7592	10.947	-180.919	21.35	-19.4691	-175.832	18.5561	-46.8283	-171.192	5.69348	-72.1971	-221.648	0.166813	-61.6052	-201.172	-4.0718	-88.7574	-172.986	-5.92779	-89.2023	-225.527	-19.1061	-66.6542	-201.853	-22.1147	-88.1753	-166.865	-19.0711	-71.8945	-220.375	-33.9361	-57.8043	-194.358	-38.6856	-77.3666	-166.965	-37.9515	-61.6547	-214.463	-53.984	-47.4171	-192.189	-50.1767	-65.1649	-166.726	-43.6412	-55.7749	-235.26	-33.3815	-5.39864	-232.478	-37.9317	24.9401	-229.745	-3.58361	7.98554	
69	0.575	-191.101	12.286	14.7706	-179.397	19.2452	-18.1279	-173.436	22.0338	-46.6086	-170.981	11.1575	-70.1774	-221.514	13.2768	-59.192	-202.841	4.97953	-85.637	-175.159	-1.47056	-87.7532	-227.895	-8.39921	-67.2979	-206.63	-13.5367	-87.8955	-169.808	-19.0025	-70.3886	-226.127	-27.8151	-58.5449	-204.205	-33.8269	-78.2848	-174.491	-33.6742	-62.5707	-224.084	-44.8684	-49.5573	-201.686	-43.9575	-66.265	-175.996	-46.2695	-56.1027	-239.953	-27.3041	-0.181359	-233.981	-33.7593	29.1642	-227.757	2.13788	12.4883	
70	0.583333	-186.785	13.8942	16.7351	-178.008	16.3508	-13.3914	-170.588	22.6767	-43.6511	-172.005	14.8313	-68.9286	-220.76	21.3707	-55.2922	-206.937	17.7702	-81.4581	-175.204	1.56319	-86.7762	-228.713	4.87875	-61.3957	-209.319	-4.30435	-85.7728	-173.88	-13.4758	-72.1484	-231.659	-18.3726	-56.5667	-205.239	-24.1958	-77.512	-178.066	-32.3376	-58.3927	-230.496	-37.0688	-50.5762	-209.946	-42.6551	-66.3255	-181.738	-41.5292	-50.3517	-243.111	-20.8139	-1.39549	-234.432	-24.9743	29.1458	-225.508	6.509	16.3351	
71	0.591667	-185.586	12.8541	16.1411	-171.707	16.5534	-9.34611	-169.247	21.006	-40.0754	-168.303	17.2188	-66.9142	-219.39	22.9252	-51.0734	-203.083	19.763	-79.1354	-175.555	4.87546	-84.4206	-230.185	12.3385	-57.8792	-208.988	5.85039	-83.4809	-174.722	-14.0138	-70.9346	-232.218	-7.31791	-56.8444	-214.765	-16.3071	-76.7522	-183.444	-30.32	-60.0769	-235.424	-29.7884	-44.7997	-213.646	-33.5835	-65.0231	-186.393	-39.674	-50.1849	-244.012	-13.3272	-0.709167	-238.48	-22.4004	29.0868	-222.779	12.9164	18.3104	
72	0.6	-180.831	9.58551	22.2761	-170.049	14.6638	-8.22157	-163.518	22.7391	-37.8917	-168.908	17.5232	-63.4313	-216.952	29.3195	-47.6414	-204.051	24.34	-75.6955	-177.488	11.2093	-83.2532	-229.476	17.2585	-57.6566	-209.252	6.91021	-82.0628	-179.911	-12.6223	-72.7308	-234.485	-1.1776	-54.1083	-214.036	-9.8958	-76.7478	-185.892	-24.9145	-62.9997	-236.067	-18.8753	-43.2591	-218.925	-27.0563	-65.4191	-192.513	-41.0782	-54.1313	-245.568	-9.3785	4.39351	-238.417	-19.1145	33.7896	-221.517	11.5951	22.6858	
73	0.608333	-180.42	5.67205	23.859	-172.004	12.7492	-8.76973	-164.914	20.4158	-39.5568	-164.32	17.561	-62.2299	-212.357	35.1151	-42.04	-198.984	31.8737	-73.1337	-176.008	10.0871	-81.4835	-225.802	25.1993	-51.8728	-211.425	15.8568	-78.8815	-180.509	-11.8047	-71.3901	-233.609	6.95881	-49.2955	-213.65	-3.81728	-74.7576	-189.377	-24.057	-63.197	-237.411	-11.4973	-45.7863	-221.784	-21.9364	-66.3183	-195.399	-33.9621	-55.3365	-242.171	-1.81169	4.36721	-241.625	-18.6027	29.2628	-219.501	12.9847	22.9637	
74	0.616667	-180.44	1.62035	22.7301	-165.648	10.7166	-7.59871	-162.719	18.1962	-39.1197	-162.969	17.1702	-61.9975	-208.311	36.9815	-39.8998	-197.675	33.0117	-70.1514	-173.325	15.1655	-80.3425	-222.908	30.7731	-51.4243	-208.299	20.1273	-77.0598	-180.482	-5.68469	-73.1257	-231.312	13.0318	-46.1197	-215.478	-0.901949	-75.2014	-195.322	-19.8219	-66.5014	-240.195	-7.5216	-43.8875	-225.606	-11.9788	-64.1355	-200.751	-29.6724	-60.4608	-242.037	-3.98724	7.22226	-238.234	-14.0131	34.0754	-214.938	13.2606	26.3614	
